<svg id="Layer_1" data-name="Layer 1" xmlns="http://www.w3.org/2000/svg" xmlns:xlink="http://www.w3.org/1999/xlink" viewBox="0 0 412.48 188.67"><defs><style>.cls-1{fill:url(#linear-gradient);}.cls-2{fill:url(#linear-gradient-2);}.cls-3{fill:url(#linear-gradient-3);}.cls-4{fill:url(#linear-gradient-4);}.cls-5{fill:url(#linear-gradient-6);}.cls-6{fill:url(#linear-gradient-7);}</style><linearGradient id="linear-gradient" x1="-40.97" y1="6.76" x2="346.13" y2="146.64" gradientUnits="userSpaceOnUse"><stop offset="0" stop-color="#08275A"/><stop offset="0.33" stop-color="#08275A"/><stop offset="0.66" stop-color="#08275A"/><stop offset="1" stop-color="#08275A"/></linearGradient><linearGradient id="linear-gradient-2" x1="-62.19" y1="65.47" x2="324.92" y2="205.35" xlink:href="#linear-gradient"/><linearGradient id="linear-gradient-3" x1="-52.34" y1="38.22" x2="334.76" y2="178.1" xlink:href="#linear-gradient"/><linearGradient id="linear-gradient-4" x1="304.39" y1="255.19" x2="304.39" y2="255.19" xlink:href="#linear-gradient"/><linearGradient id="linear-gradient-6" x1="9.06" y1="240.24" x2="396.17" y2="380.12" xlink:href="#linear-gradient"/><linearGradient id="linear-gradient-7" x1="19.73" y1="210.73" x2="406.84" y2="350.61" xlink:href="#linear-gradient"/></defs><polygon class="cls-1" points="0 1.3 68.31 1.3 98.24 43.59 64.41 89.78 0 1.3"/><polygon class="cls-2" points="114.51 140.53 147.04 94.18 214.05 188.68 148.99 188.68 114.51 140.53"/><polygon class="cls-3" points="5.21 188.68 136.63 1.3 204.29 1.3 70.27 188.68 5.21 188.68"/><path class="cls-4" d="M304.39,255.19" transform="translate(-42.19 -255.19)"/><path class="cls-4" d="M304.39,255.19" transform="translate(-42.19 -255.19)"/><path class="cls-5" d="M304.39,255.19V371.87c0,30.36,40.12,28.19,40.12,28.19v43.81c-96.29-2.6-98-64.63-98-64.63V256.49Z" transform="translate(-42.19 -255.19)"/><path class="cls-6" d="M396.77,255.19V371.87c0,30.36-40.12,28.19-40.12,28.19v43.81c96.29-2.6,98-64.63,98-64.63V256.49Z" transform="translate(-42.19 -255.19)"/></svg>